<?xml version="1.0" encoding="utf-8"?>
<!-- Generator: Adobe Illustrator 28.2.0, SVG Export Plug-In . SVG Version: 6.00 Build 0)  -->
<svg version="1.1" id="Layer_1" xmlns="http://www.w3.org/2000/svg" xmlns:xlink="http://www.w3.org/1999/xlink" x="0px" y="0px"
	 viewBox="0 0 1080 1080" style="enable-background:new 0 0 1080 1080;" xml:space="preserve">
<style type="text/css">
	.st0{fill:#97242A;}
	.st1{fill:#CA6E71;}
	.st2{fill:#945317;}
	.st3{fill:#FFFFFF;}
	.st4{fill:#5F2F1E;}
</style>
<g>
	<g>
		<path class="st0" d="M338.8,493.3c9.9,0,19.2,2.6,27.2,7.2c-9.9-14.8-26.8-24.5-46-24.5c-30.6,0-55.4,24.8-55.4,55.4
			c0,20.7,11.4,38.7,28.2,48.3c-5.9-8.8-9.4-19.4-9.4-30.9C283.4,518.1,308.2,493.3,338.8,493.3z"/>
	</g>
	<g>
		<path class="st1" d="M366,500.4c5.9,8.8,9.4,19.4,9.4,30.9c0,30.6-24.8,55.4-55.4,55.4c-9.9,0-19.2-2.6-27.2-7.2
			c9.9,14.8,26.8,24.5,46,24.5c30.6,0,55.4-24.8,55.4-55.4C394.2,528,382.8,509.9,366,500.4z"/>
	</g>
	<g>
		<path class="st2" d="M375.4,531.3c0-11.4-3.5-22.1-9.4-30.9c-8-4.5-17.3-7.2-27.2-7.2c-30.6,0-55.4,24.8-55.4,55.4
			c0,11.4,3.5,22.1,9.4,30.9c8,4.5,17.3,7.2,27.2,7.2C350.6,586.7,375.4,561.9,375.4,531.3z"/>
	</g>
	<g>
		<g>
			<path class="st2" d="M420.5,490.1H438c15.2,0,23,5.9,23,18.7c0,7.7-3.7,13-10.3,15.3c9.3,1.6,14.9,8.6,14.9,17.9
				c0,13.9-9.1,20.5-28.9,20.5h-16.1V490.1z M438.1,521.6c10.5,0,16-3.7,16-12.3c0-9.2-5.3-12.8-16-12.8h-10.7v25.1H438.1z
				 M436.4,555.8c15.3,0,22-3.7,22-13.9c0-9.7-6.6-14.2-20.3-14.2h-10.7v28.1H436.4z"/>
		</g>
		<g>
			<path class="st2" d="M469.2,526.3c0-20.1,16.2-37.6,37.7-37.6c21.4,0,38.8,17.9,37.5,39.1h-68.1c0.4,15.8,13.5,29.3,30.6,29.3
				c13.8,0,25.4-9.3,28.9-21.2h7.6c-3.9,15.7-18.6,28.1-36.4,28.1C485.4,563.8,469.2,546.4,469.2,526.3z M536.8,521.2
				c-1.8-14.1-14.5-25.8-30-25.8c-15.7,0-28,11.6-30.1,25.8H536.8z"/>
		</g>
		<g>
			<path class="st2" d="M549.7,526.2c0-20.1,15.7-37.6,37.6-37.6c18.8,0,33.2,13.1,36.6,29.6h-7.8c-3-12.9-14.6-22.5-28.8-22.5
				c-17.4,0-30.6,13.5-30.6,30.5c0,17,13.1,30.6,30.6,30.6c14.5,0,26.6-10.2,29.3-23.8h-34v-6.5h42.2c-0.1,20-15.8,37.3-37.5,37.3
				C565.4,563.8,549.7,546.3,549.7,526.2z"/>
		</g>
		<g>
			<path class="st2" d="M632.3,534.9v-44.8h7.1v45c0,11.9,5,21.6,17.9,21.6c12.9,0,18-9.8,18-21.6v-45h7.1v44.8
				c0,16.5-8.6,28.8-25.2,28.8C640.7,563.7,632.3,551.4,632.3,534.9z"/>
		</g>
		<g>
			<path class="st2" d="M692.5,490.1h7.1v72.4h-7.1V490.1z"/>
		</g>
		<g>
			<path class="st2" d="M710.4,490.1h7.1v65.5h26.7v6.9h-33.8V490.1z"/>
		</g>
		<g>
			<path class="st2" d="M740.2,526.3c0-20.1,16.2-37.6,37.7-37.6c21.4,0,38.8,17.9,37.5,39.1h-68.1c0.4,15.8,13.5,29.3,30.6,29.3
				c13.8,0,25.4-9.3,28.9-21.2h7.6c-3.9,15.7-18.6,28.1-36.4,28.1C756.4,563.8,740.2,546.4,740.2,526.3z M807.9,521.2
				c-1.8-14.1-14.5-25.8-30-25.8c-15.7,0-28,11.6-30.1,25.8H807.9z"/>
		</g>
	</g>
	<g>
		<g>
			<g>
				<path class="st3" d="M351.8,594.6c-0.1,0-0.3-0.1-0.3-0.2c-1.7-5.1-3.8-9.9-10.8-12c-0.4-0.1-0.9-0.3-1.3-0.4
					c-3.3-1-7.1-2.1-9.5-4.4c-1.4-1.4-2.2-3.4-2.5-6c-0.2-2.1,0-4.5,0.6-6.8c0.2-0.8,0.5-1.6,0.7-2.4c-3,1-6.1,1.2-9,0.6
					c-1.8-0.4-3-0.9-3.6-1.5c-3.8,1.1-6.8,1.4-11.9,1.5c-1.7,0-4.2-0.4-5.9-0.9c-1.7-0.5-3.1-2.1-3.6-3.9c-0.5-1.9,0.3-3.7,1.1-5.5
					c0.8-1.7,1.5-3.3,1.1-5c-0.1-0.3-0.2-0.6-0.2-0.9c-0.3-1.1-0.7-2.4-0.4-3.5c0.3-1.1,1.4-1.8,2.5-1.7c-1.1-0.8-1.5-1.8-1.2-3
					c0.1-0.7,0.6-1.2,1-1.6c0.4-0.5,0.9-1,0.9-1.7c0.2-1.9-1.1-4.2-3.1-5.6c-0.2-0.2-1.1-1.1-1.2-2.2c0-0.6,0.2-1.2,0.7-1.7
					c1.1-1,2.7-1.4,4.2-1.8c0.7-0.2,1.4-0.3,2-0.5c3.7-1.3,6.5-4.9,7.9-9.8c0.3-1.1,0.6-2.3,0.8-3.4c0.8-3.3,1.5-6.7,3.4-9.5
					c1.9-2.9,4.7-5.1,8.4-6.7c4.2-1.8,9-2.4,13.2-1.7c2.3,0.4,4.4,1.1,6.3,2.1c2,1.1,3.7,2.5,5,4.3c2.3,3.1,3.3,7.3,2.7,11.5
					c-0.6,4.2-2.7,8-5.7,10.4c-3.1,2.4-7.3,3.8-11.8,3.8c-0.1,0-0.1,0-0.2,0c-3.7,0-7.6-0.8-12.1-2.5c-0.4-0.2-0.9-0.3-1.3-0.4
					c-1.3-0.4-2.6-0.7-3.4-2.1c-0.3-0.5-0.6-1.2-0.9-1.9c-0.3-0.8-0.6-1.6-1.1-2.3c-0.1-0.1-0.1-0.3,0.1-0.4c0.1-0.1,0.3-0.1,0.4,0
					c4.9,4.3,9.1,6.9,16,7.2c0.8,0,1.9-0.3,2.4-0.8c0.9-0.7,0.7-2.2,0.1-3.1c-0.5-0.6-1.1-1-1.8-1.3c0,0,0,0-0.1,0
					c-0.4-0.2-0.9-0.4-1.3-0.5c-2.5-0.8-5.1-1.3-7.8-1.5c-1.1-0.1-2.4-0.1-3.8-0.5c-0.7-0.2-1.5-0.6-1.6-2.1c0-0.2,0-0.4,0.2-0.5
					c0.1-0.1,0.3-0.2,0.5-0.2c1.3-0.1,2.5,0.1,3.7,0.2c1,0.1,2.1,0.3,3.5,0.3c5,0.2,5.8,1.7,6.8,3.8c0.1,0.2,0.2,0.3,0.2,0.5
					c0.7,0.4,1.4,0.8,1.9,1.5c0.9,1.1,1,3-0.2,4c-0.7,0.6-2,1-2.9,0.9c-3.4-0.2-6.3-0.9-9.1-2.3c-2.3-1.1-4.3-2.6-6-4.1
					c0.1,0.3,0.3,0.6,0.4,1c0.3,0.7,0.5,1.3,0.8,1.8c0.7,1.1,1.8,1.4,3,1.8c0.4,0.1,0.9,0.3,1.4,0.4c4.4,1.7,8.4,2.5,12,2.5
					c4.4,0,8.5-1.3,11.5-3.7c6.2-4.8,7.5-14.7,2.9-21c-2.4-3.2-6-5.3-10.8-6.1c-4.2-0.7-8.8-0.1-12.9,1.7c-3.6,1.5-6.3,3.7-8.1,6.5
					c-1.8,2.7-2.6,6.1-3.3,9.3c-0.3,1.1-0.5,2.3-0.8,3.5c-1.4,5.1-4.4,8.8-8.3,10.2c-0.6,0.2-1.4,0.4-2.1,0.6
					c-1.4,0.3-2.9,0.7-3.9,1.6c-0.4,0.3-0.5,0.7-0.5,1.2c0.1,0.8,0.8,1.6,0.9,1.7c1.1,0.8,2,1.8,2.6,2.9c0.6,1.1,0.8,2.2,0.8,3.2
					c-0.1,0.9-0.6,1.5-1.1,2.1c-0.4,0.4-0.7,0.8-0.8,1.3c-0.3,1.5,0.8,2.6,3.5,3.5c0.4,0.1,0.7,0.2,1.1,0.3c0.2,0.1,0.3,0.2,0.2,0.4
					c0,0.2-0.2,0.3-0.4,0.2c-0.3-0.1-0.7-0.2-1.2-0.4c-0.7-0.2-1.4-0.4-2.4-0.6c-0.9-0.2-1.8,0.3-2,1.2c-0.3,0.9,0.1,2.1,0.4,3.2
					c0.1,0.3,0.2,0.6,0.2,0.9c0.5,1.9-0.3,3.7-1.1,5.4c-0.8,1.7-1.5,3.3-1.1,5c0.4,1.6,1.7,3,3.2,3.5c1.6,0.5,4.1,0.9,5.7,0.9
					c4.9-0.1,7.8-0.4,11.4-1.3c-0.5-0.6-0.6-1.3-0.7-1.7c0,0,0-0.1,0-0.1c-0.7-3.7-0.4-6.9,1-10.1c1.4-3.3,3.4-6,6.1-8.1
					c3.2-2.6,6.1-4,8.8-4.2c2.5-0.2,4.5,0.2,6,1.2c1.3,0.9,2.2,2.4,2.4,4.1c0.3,2.5-0.9,5.4-3.6,8.5c-3.5,4-8.4,7.1-14.5,9.4
					c-1.5,0.6-2.9,1-4.2,1.4c0.6,0.4,1.6,0.8,3,1.1c3,0.6,6.1,0.3,9.2-0.8c0.4-1,0.9-2,1.4-2.9c1.2-2.1,2.6-3.7,4.2-4.9
					c1.6-1.2,2.5-0.9,3-0.6c0.6,0.5,0.7,1.5,0.5,2.2c-0.4,1-0.9,1.8-1.6,2.4c-2.1,1.9-4.5,3.3-7,4.2c-0.3,0.9-0.6,1.8-0.9,2.8
					c-1.1,4.2-1,9.5,1.7,12.2c2.3,2.3,6,3.3,9.2,4.3c0.5,0.1,0.9,0.3,1.3,0.4c3.3,1,5.7,2.6,7.6,4.9c1.8,2.2,2.8,4.9,3.7,7.5
					c0.1,0.2,0,0.3-0.2,0.4C351.8,594.6,351.8,594.6,351.8,594.6z M336.7,553.7c-0.4,0-1,0.3-1.8,0.8c-2.1,1.4-3.8,3.9-5.1,6.9
					c2.2-0.9,4.3-2.2,6.2-3.9c0.6-0.6,1.1-1.3,1.5-2.1c0.2-0.5,0.1-1.2-0.3-1.5C337.1,553.7,336.9,553.7,336.7,553.7z M331.9,537.2
					c-0.4,0-0.7,0-1.1,0c-2.6,0.2-5.4,1.5-8.5,4c-2.6,2.1-4.6,4.7-5.9,7.9c-1.3,3.1-1.6,6.2-0.9,9.8c0,0,0,0.1,0,0.1
					c0.1,0.5,0.2,1.1,0.7,1.7c1.4-0.4,2.8-0.9,4.5-1.5c6-2.2,10.9-5.3,14.3-9.2c2.6-3,3.8-5.7,3.5-8
					C338.1,539,335.7,537.2,331.9,537.2z M317.2,512.2c-0.3,0-0.5,0-0.8,0c0,0,0,0-0.1,0c0,0,0,0,0,0.1c0.1,0.9,0.4,1.4,1.2,1.6
					c1.4,0.3,2.6,0.4,3.7,0.5c2.7,0.1,5.4,0.6,8,1.5c0.2,0.1,0.4,0.1,0.6,0.2c-0.5-0.9-0.9-1.6-1.7-2.1c-0.9-0.6-2.4-1-4.5-1.1
					c-1.5-0.1-2.6-0.2-3.6-0.4C319,512.3,318.1,512.2,317.2,512.2z"/>
			</g>
			<g>
				<path class="st3" d="M351.8,595.1c-0.4,0-0.7-0.2-0.8-0.6c-1.7-5-3.7-9.6-10.5-11.7c-0.4-0.1-0.8-0.2-1.2-0.4l-0.1,0
					c-3.4-1-7.2-2.1-9.7-4.6c-1.5-1.4-2.4-3.6-2.6-6.3c-0.2-2.2,0-4.6,0.6-6.9c0.1-0.5,0.3-1,0.4-1.5c-2.8,0.8-5.7,0.9-8.3,0.3
					c-1.6-0.3-2.8-0.8-3.7-1.5c-3.5,1-6.5,1.3-11.8,1.4c-1.7,0-4.3-0.4-6.1-0.9c-1.8-0.6-3.4-2.3-4-4.2c-0.6-2.1,0.3-4,1.2-5.8
					c0.8-1.6,1.5-3.1,1.1-4.7c-0.1-0.3-0.1-0.6-0.2-0.8c-0.3-1.2-0.7-2.5-0.4-3.8c0.3-0.9,1-1.7,1.9-1.9c-0.6-0.8-0.8-1.7-0.6-2.7
					c0.2-0.8,0.7-1.4,1.1-1.8c0.4-0.5,0.7-0.8,0.8-1.4c0.1-1.7-1-3.8-2.9-5.1c-0.3-0.2-1.3-1.3-1.4-2.6c-0.1-0.8,0.2-1.5,0.8-2.1
					c1.2-1.1,2.8-1.5,4.4-1.9c0.7-0.2,1.4-0.3,1.9-0.5c3.5-1.3,6.3-4.7,7.6-9.4c0.3-1.1,0.6-2.3,0.8-3.4c0.8-3.3,1.6-6.7,3.5-9.6
					c1.9-2.9,4.8-5.2,8.6-6.9c4.3-1.9,9.1-2.5,13.5-1.7c2.4,0.4,4.6,1.1,6.4,2.1c2.1,1.1,3.8,2.6,5.1,4.4c2.4,3.2,3.4,7.6,2.8,11.9
					c-0.6,4.3-2.7,8.2-5.9,10.7c-3.2,2.5-7.5,3.9-12.1,3.9l-0.2,0c-3.7,0-7.8-0.8-12.3-2.5c-0.4-0.2-0.9-0.3-1.3-0.4
					c-1.4-0.4-2.8-0.8-3.7-2.3c-0.3-0.6-0.6-1.3-0.9-2c-0.3-0.8-0.6-1.5-1-2.2c-0.2-0.3-0.1-0.8,0.2-1.1c0.3-0.3,0.8-0.3,1.1,0
					c4.8,4.3,8.9,6.8,15.6,7.1c0.6,0,1.6-0.3,2.1-0.7c0.6-0.5,0.5-1.7,0-2.4c-0.4-0.5-0.9-0.8-1.6-1.2l-0.1,0
					c-0.3-0.1-0.7-0.3-1.2-0.5c-2.5-0.8-5.1-1.3-7.7-1.4c-1.2-0.1-2.4-0.1-3.9-0.5c-0.7-0.2-1.9-0.7-2-2.6c0-0.3,0.1-0.6,0.3-0.9
					c0.2-0.2,0.5-0.4,0.8-0.4c1.4-0.1,2.5,0.1,3.8,0.2c1,0.1,2.1,0.3,3.5,0.3c5.3,0.2,6.2,1.9,7.3,4l0.2,0.3c0.8,0.4,1.5,0.9,2,1.5
					c1,1.3,1.2,3.5-0.2,4.7c-0.7,0.6-1.9,1-2.9,1.1c0.8,0.1,1.5,0.1,2.2,0.1c4.3,0,8.2-1.3,11.2-3.6c6-4.7,7.3-14.2,2.8-20.3
					c-2.3-3.1-5.8-5.1-10.5-5.9c-4.1-0.7-8.6-0.1-12.6,1.6c-3.5,1.5-6.1,3.6-7.9,6.3c-1.8,2.7-2.5,5.9-3.2,9.1
					c-0.3,1.2-0.5,2.3-0.9,3.5c-1.5,5.3-4.6,9.1-8.6,10.5c-0.7,0.2-1.4,0.4-2.1,0.6c-1.4,0.3-2.8,0.7-3.7,1.5
					c-0.2,0.2-0.3,0.5-0.3,0.8c0,0.6,0.6,1.3,0.7,1.4c1.2,0.8,2.1,1.9,2.7,3.1c0.6,1.2,0.9,2.4,0.8,3.5c-0.1,1.1-0.7,1.8-1.2,2.3
					c-0.3,0.4-0.6,0.7-0.7,1.1c-0.2,0.8,0,1.9,3.1,2.9c0.4,0.1,0.7,0.2,1.1,0.3c0.4,0.1,0.7,0.6,0.5,1c-0.1,0.4-0.6,0.7-1,0.6
					c-0.4-0.1-0.8-0.2-1.2-0.4c-0.6-0.2-1.3-0.4-2.4-0.6c-0.6-0.1-1.3,0.2-1.5,0.8c-0.2,0.8,0.1,1.9,0.4,2.9
					c0.1,0.3,0.2,0.6,0.3,0.9c0.5,2.1-0.3,4-1.2,5.8c-0.8,1.7-1.5,3.2-1.1,4.7c0.4,1.4,1.5,2.7,2.9,3.1c1.6,0.5,4,0.9,5.5,0.9
					c4.8-0.1,7.6-0.4,10.6-1.2c-0.2-0.5-0.3-1-0.4-1.3l0-0.1c-0.7-3.8-0.4-7.1,1-10.4c1.4-3.3,3.5-6.1,6.2-8.3
					c3.3-2.7,6.3-4.1,9.1-4.3c2.6-0.2,4.8,0.2,6.3,1.3c1.5,1,2.4,2.6,2.6,4.5c0.4,2.7-0.9,5.6-3.7,8.9c-3.6,4-8.5,7.2-14.7,9.5
					c-1.2,0.4-2.1,0.8-3,1.1c0.5,0.2,1.1,0.4,1.8,0.5c2.8,0.6,5.8,0.3,8.7-0.7c0.4-1,0.8-1.9,1.3-2.8c1.2-2.2,2.7-3.9,4.3-5
					c1.9-1.3,3-1,3.6-0.6c0.8,0.7,1,1.9,0.6,2.8c-0.4,1-1,1.9-1.8,2.6c-2.1,1.9-4.4,3.3-6.9,4.3c-0.3,0.8-0.6,1.7-0.8,2.5
					c-1.1,4-1,9.2,1.6,11.7c2.2,2.2,5.8,3.2,9,4.2l0.1,0c0.4,0.1,0.8,0.2,1.2,0.4c3.4,1,5.9,2.7,7.8,5.1c1.8,2.3,2.9,5,3.7,7.6
					c0.1,0.2,0.1,0.4,0,0.6c-0.1,0.2-0.3,0.3-0.5,0.4C352,595.1,351.9,595.1,351.8,595.1z M336.7,554.2c-0.2,0-0.6,0.1-1.5,0.7
					c-1.7,1.2-3.2,3.1-4.4,5.5c1.7-0.8,3.4-1.9,4.9-3.3c0.6-0.5,1-1.2,1.3-1.9c0.1-0.3,0.1-0.8-0.1-0.9
					C336.8,554.2,336.8,554.2,336.7,554.2z M331.9,537.7c-0.3,0-0.7,0-1.1,0c-2.5,0.2-5.2,1.5-8.2,3.9c-2.5,2-4.4,4.6-5.8,7.7
					c-1.3,3-1.6,6-0.9,9.5l0,0.2c0.1,0.4,0.1,0.8,0.4,1.2c1.2-0.4,2.5-0.8,4.2-1.4c6-2.2,10.7-5.2,14.1-9.1c2.5-2.9,3.6-5.4,3.4-7.6
					C337.6,539.3,335.4,537.7,331.9,537.7z M315.7,518.1c0.1,0.3,0.3,0.6,0.4,0.9c0.6,0.9,1.5,1.2,2.7,1.6c0.4,0.1,0.8,0.2,1.3,0.4
					C318.7,520.2,317.2,519.3,315.7,518.1z M316.9,512.7c0.1,0.4,0.4,0.6,0.7,0.7c1.4,0.3,2.5,0.4,3.6,0.4c2.5,0.1,5,0.6,7.4,1.3
					c-0.2-0.3-0.5-0.6-0.8-0.8c-0.8-0.6-2.2-0.9-4.3-1c-1.5-0.1-2.6-0.2-3.6-0.4C318.9,512.8,318,512.7,316.9,512.7z"/>
			</g>
		</g>
	</g>
	<g>
		<path class="st4" d="M430.3,590v1.4h-8.1v-11.2h7.9v1.4h-6.3v3.4h5.6v1.4h-5.6v3.6H430.3z"/>
		<path class="st4" d="M448.1,591.3l0-8.2l-4,6.8h-0.7l-4-6.8v8.1h-1.5v-11.2h1.3l4.7,7.9l4.6-7.9h1.3l0,11.2H448.1z"/>
		<path class="st4" d="M466.8,584c0,2.4-1.8,3.9-4.7,3.9h-2.8v3.4h-1.6v-11.2h4.4C465,580.1,466.8,581.6,466.8,584z M465.2,584
			c0-1.6-1.1-2.5-3.1-2.5h-2.7v5h2.7C464.1,586.6,465.2,585.6,465.2,584z"/>
		<path class="st4" d="M473.2,585.7c0-3.3,2.5-5.7,6-5.7c3.4,0,5.9,2.4,5.9,5.7s-2.5,5.7-5.9,5.7C475.7,591.5,473.2,589,473.2,585.7
			z M483.5,585.7c0-2.5-1.9-4.3-4.3-4.3c-2.5,0-4.4,1.8-4.4,4.3c0,2.5,1.9,4.3,4.4,4.3C481.6,590.1,483.5,588.2,483.5,585.7z"/>
		<path class="st4" d="M507.8,580.1l-3.7,11.2h-1.7l-3.1-8.9l-3.1,8.9h-1.7l-3.7-11.2h1.6l3,9.1l3.2-9.1h1.5l3.1,9.2l3.1-9.2H507.8z
			"/>
		<path class="st4" d="M522.7,590v1.4h-8.1v-11.2h7.9v1.4h-6.3v3.4h5.6v1.4h-5.6v3.6H522.7z"/>
		<path class="st4" d="M537.6,591.3l-2.4-3.4c-0.2,0-0.5,0-0.7,0h-2.8v3.4h-1.6v-11.2h4.4c2.9,0,4.7,1.5,4.7,3.9
			c0,1.7-0.9,3-2.5,3.5l2.7,3.8H537.6z M537.5,584c0-1.6-1.1-2.5-3.1-2.5h-2.7v5h2.7C536.4,586.6,537.5,585.6,537.5,584z"/>
		<path class="st4" d="M546.5,580.1h1.6v11.2h-1.6V580.1z"/>
		<path class="st4" d="M565.9,580.1v11.2h-1.3l-6.7-8.4v8.4h-1.6v-11.2h1.3l6.7,8.4v-8.4H565.9z"/>
		<path class="st4" d="M581.8,585.7h1.5v4.4c-1.1,0.9-2.7,1.4-4.2,1.4c-3.4,0-6-2.4-6-5.7c0-3.3,2.5-5.7,6-5.7
			c1.8,0,3.3,0.6,4.3,1.7l-1,1c-0.9-0.9-2-1.3-3.2-1.3c-2.6,0-4.5,1.8-4.5,4.3c0,2.5,1.9,4.3,4.4,4.3c0.9,0,1.8-0.2,2.6-0.7V585.7z"
			/>
		<path class="st4" d="M604.6,587.5v3.9H603v-3.9l-4.5-7.3h1.7l3.6,5.9l3.6-5.9h1.6L604.6,587.5z"/>
		<path class="st4" d="M614.1,585.7c0-3.3,2.5-5.7,6-5.7c3.4,0,5.9,2.4,5.9,5.7s-2.5,5.7-5.9,5.7C616.6,591.5,614.1,589,614.1,585.7
			z M624.4,585.7c0-2.5-1.9-4.3-4.3-4.3c-2.5,0-4.4,1.8-4.4,4.3c0,2.5,1.9,4.3,4.4,4.3C622.5,590.1,624.4,588.2,624.4,585.7z"/>
		<path class="st4" d="M633.1,586.5v-6.4h1.6v6.3c0,2.5,1.1,3.6,3.2,3.6c2,0,3.2-1.1,3.2-3.6v-6.3h1.6v6.4c0,3.2-1.8,5-4.7,5
			C634.9,591.5,633.1,589.8,633.1,586.5z"/>
		<path class="st4" d="M658.2,591.3l-2.4-3.4c-0.2,0-0.5,0-0.7,0h-2.8v3.4h-1.6v-11.2h4.4c2.9,0,4.7,1.5,4.7,3.9
			c0,1.7-0.9,3-2.5,3.5l2.7,3.8H658.2z M658.1,584c0-1.6-1.1-2.5-3.1-2.5h-2.7v5h2.7C657.1,586.6,658.1,585.6,658.1,584z"/>
		<path class="st4" d="M675.2,590.1l0.6-1.2c0.8,0.8,2.3,1.3,3.7,1.3c1.9,0,2.8-0.8,2.8-1.7c0-2.7-6.8-1-6.8-5.2
			c0-1.7,1.3-3.2,4.3-3.2c1.3,0,2.7,0.4,3.6,1l-0.5,1.3c-1-0.6-2.1-0.9-3.1-0.9c-1.9,0-2.7,0.8-2.7,1.8c0,2.7,6.8,1,6.8,5.1
			c0,1.7-1.4,3.2-4.3,3.2C677.8,591.5,676.1,590.9,675.2,590.1z"/>
		<path class="st4" d="M693,581.5h-3.8v-1.4h9.3v1.4h-3.8v9.8H693V581.5z"/>
		<path class="st4" d="M709.2,587.5v3.9h-1.6v-3.9l-4.5-7.3h1.7l3.6,5.9l3.6-5.9h1.6L709.2,587.5z"/>
		<path class="st4" d="M719.8,580.1h1.6v9.8h6.1v1.4h-7.7V580.1z"/>
		<path class="st4" d="M742.3,590v1.4h-8.1v-11.2h7.9v1.4h-6.3v3.4h5.6v1.4h-5.6v3.6H742.3z"/>
	</g>
</g>
</svg>
